<svg width="323" height="281" viewBox="0 0 323 281" fill="none" xmlns="http://www.w3.org/2000/svg">
<path fill-rule="evenodd" clip-rule="evenodd" d="M80.1372 97.2858C80.4841 97.8112 81.058 98.1425 81.6864 98.1802L85.6236 98.4166C87.2687 98.5153 88.3205 96.6935 87.4124 95.3182L85.2392 92.0266C84.8923 91.5013 84.3184 91.1699 83.69 91.1322L79.7528 90.8959C78.1077 90.7971 77.0559 92.6189 77.964 93.9943L80.1372 97.2858ZM128.774 67.4792C128.092 66.2975 128.136 64.8317 128.888 63.6929L147.504 35.4976C148.721 33.6541 148.213 31.1728 146.37 29.9556C144.526 28.7384 142.045 29.2462 140.828 31.0897L126.4 52.9405C124.925 55.1754 121.613 55.0761 120.274 52.7568C119.592 51.575 119.636 50.1092 120.388 48.9705L129.147 35.7034C130.364 33.8599 129.857 31.3786 128.013 30.1614C126.17 28.9442 123.688 29.4519 122.471 31.2955L119.122 36.3677C116.806 39.8758 111.694 39.9761 109.242 36.5615L83.6469 0.920647C82.9848 -0.00145484 81.7314 -0.271482 80.7483 0.296136C79.7652 0.863755 79.3723 2.08418 79.8398 3.1187L97.9084 43.1048C99.6395 46.9356 96.9964 51.3129 92.8002 51.5647L86.733 51.9289C84.5278 52.0613 82.8475 53.9562 82.9798 56.1614C83.1122 58.3666 85.0071 60.0469 87.2123 59.9145L103.082 58.962C104.444 58.8803 105.735 59.5751 106.418 60.7569C107.757 63.0762 106.187 65.9939 103.514 66.1543L77.3766 67.7232C75.1714 67.8555 73.4911 69.7505 73.6234 71.9556C73.7558 74.1608 75.6507 75.8411 77.8559 75.7088L111.582 73.6844C112.944 73.6027 114.235 74.2975 114.918 75.4793C116.257 77.7986 114.687 80.7163 112.014 80.8768L94.8048 81.9097C92.5996 82.042 90.9193 83.937 91.0516 86.1422C91.184 88.3473 93.0789 90.0277 95.2841 89.8953L118.603 88.4956C120.871 88.3595 123.022 89.5167 124.159 91.4849V91.4849C124.691 92.407 124.164 93.5798 123.121 93.7945L101.03 98.3416C96.3384 99.3074 93.5413 104.152 95.0509 108.698L102.158 130.103C102.494 131.114 101.742 132.156 100.677 132.156V132.156C98.4042 132.156 96.3266 130.872 95.3103 128.839L84.8631 107.945C83.8751 105.969 81.4724 105.168 79.4965 106.156C77.5206 107.144 76.7197 109.547 77.7077 111.523L85.4175 126.942C86.6152 129.338 84.8733 132.156 82.1952 132.156C80.8306 132.156 79.5831 131.385 78.9729 130.165L63.8631 99.9451C62.8751 97.9692 60.4724 97.1683 58.4965 98.1562C56.5206 99.1442 55.7197 101.547 56.7077 103.523L68.4175 126.942C69.6152 129.338 67.8733 132.156 65.1952 132.156C63.8306 132.156 62.5831 131.385 61.9729 130.165L54.8631 115.945C53.8751 113.969 51.4724 113.168 49.4965 114.156C47.5206 115.144 46.7197 117.547 47.7077 119.523L50.4258 124.959C52.3058 128.719 49.8365 133.197 45.6534 133.613L1.99017 137.958C0.860513 138.071 0 139.021 0 140.156C0 141.291 0.86051 142.242 1.99017 142.354L45.6535 146.699C49.8366 147.116 52.3059 151.593 50.4259 155.353L47.7077 160.79C46.7197 162.766 47.5206 165.168 49.4965 166.156C51.4724 167.144 53.8751 166.343 54.8631 164.367L61.9729 150.148C62.5832 148.927 63.8306 148.156 65.1952 148.156C67.8734 148.156 69.6152 150.975 68.4175 153.37L56.7077 176.79C55.7197 178.766 56.5206 181.168 58.4965 182.156C60.4724 183.144 62.8751 182.343 63.8631 180.367L78.9729 150.148C79.5832 148.927 80.8306 148.156 82.1952 148.156C84.8734 148.156 86.6152 150.975 85.4175 153.37L77.7077 168.79C76.7197 170.766 77.5206 173.168 79.4965 174.156C81.4724 175.144 83.8751 174.343 84.8631 172.367L95.3103 151.473C96.3267 149.44 98.4042 148.156 100.677 148.156V148.156C101.742 148.156 102.494 149.199 102.158 150.209L95.0509 171.614C93.5413 176.16 96.3385 181.005 101.03 181.971L123.121 186.518C124.164 186.733 124.691 187.906 124.158 188.828V188.828C123.022 190.796 120.871 191.953 118.603 191.817L95.2841 190.417C93.079 190.285 91.184 191.965 91.0517 194.17C90.9193 196.375 92.5996 198.27 94.8048 198.403L112.013 199.436C114.687 199.596 116.257 202.514 114.918 204.833C114.235 206.015 112.944 206.71 111.582 206.628L77.8559 204.604C75.6508 204.471 73.7558 206.152 73.6235 208.357C73.4911 210.562 75.1714 212.457 77.3766 212.589L103.513 214.158C106.187 214.319 107.757 217.236 106.418 219.556C105.735 220.737 104.444 221.432 103.082 221.35L87.2123 220.398C85.0072 220.266 83.1122 221.946 82.9799 224.151C82.8475 226.356 84.5278 228.251 86.733 228.384L92.8001 228.748C96.9963 229 99.6394 233.377 97.9083 237.208L79.8397 277.194C79.3723 278.228 79.7651 279.449 80.7482 280.016C81.7314 280.584 82.9847 280.314 83.6469 279.392L109.242 243.751C111.694 240.336 116.806 240.437 119.122 243.945L122.471 249.017C123.688 250.861 126.17 251.368 128.013 250.151C129.857 248.934 130.364 246.453 129.147 244.609L120.388 231.342C119.636 230.203 119.592 228.737 120.274 227.556C121.613 225.236 124.925 225.137 126.4 227.372L140.828 249.223C142.045 251.066 144.526 251.574 146.37 250.357C148.213 249.14 148.721 246.658 147.504 244.815L128.888 216.619C128.136 215.481 128.092 214.015 128.774 212.833C130.113 210.514 133.425 210.415 134.9 212.649L144.399 227.036C145.617 228.88 148.098 229.388 149.941 228.17C151.785 226.953 152.293 224.472 151.075 222.628L138.204 203.134C136.952 201.237 136.879 198.796 138.015 196.828V196.828C138.547 195.905 139.826 195.775 140.534 196.571L155.517 213.429C158.699 217.009 164.294 217.009 167.476 213.429L182.459 196.571C183.167 195.775 184.446 195.906 184.978 196.828V196.828C186.114 198.796 186.041 201.237 184.789 203.134L171.918 222.628C170.7 224.472 171.208 226.953 173.052 228.17C174.895 229.388 177.376 228.88 178.594 227.036L188.093 212.65C189.568 210.415 192.88 210.514 194.219 212.833C194.901 214.015 194.857 215.481 194.105 216.62L175.489 244.815C174.272 246.658 174.78 249.14 176.623 250.357C178.467 251.574 180.948 251.066 182.165 249.223L196.593 227.372C198.068 225.137 201.38 225.236 202.719 227.556C203.401 228.737 203.357 230.203 202.605 231.342L193.846 244.609C192.629 246.453 193.136 248.934 194.98 250.151C196.823 251.368 199.305 250.861 200.522 249.017L203.871 243.945C206.187 240.437 211.299 240.336 213.751 243.751L239.346 279.392C240.008 280.314 241.262 280.584 242.245 280.016C243.228 279.449 243.621 278.228 243.153 277.194L225.085 237.208C223.354 233.377 225.997 229 230.193 228.748L236.26 228.384C238.465 228.251 240.146 226.356 240.013 224.151C239.881 221.946 237.986 220.266 235.781 220.398L219.911 221.35C218.549 221.432 217.258 220.737 216.575 219.556C215.236 217.236 216.806 214.319 219.479 214.158L245.616 212.589C247.822 212.457 249.502 210.562 249.37 208.357C249.237 206.152 247.342 204.471 245.137 204.604L211.411 206.628C210.049 206.71 208.758 206.015 208.075 204.833C206.736 202.514 208.306 199.596 210.979 199.436L228.188 198.403C230.393 198.27 232.074 196.375 231.941 194.17C231.809 191.965 229.914 190.285 227.709 190.417L204.39 191.817C202.122 191.953 199.971 190.796 198.835 188.828V188.828C198.302 187.906 198.829 186.733 199.872 186.518L221.963 181.971C226.655 181.005 229.452 176.16 227.942 171.614L220.835 150.209C220.499 149.199 221.251 148.156 222.316 148.156V148.156C224.589 148.156 226.666 149.44 227.683 151.473L238.13 172.367C239.118 174.343 241.521 175.144 243.497 174.156C245.472 173.168 246.273 170.766 245.285 168.79L237.576 153.37C236.378 150.975 238.12 148.156 240.798 148.156C242.162 148.156 243.41 148.927 244.02 150.148L259.13 180.367C260.118 182.343 262.521 183.144 264.497 182.156C266.472 181.168 267.273 178.766 266.285 176.79L254.576 153.37C253.378 150.975 255.12 148.156 257.798 148.156C259.162 148.156 260.41 148.927 261.02 150.148L268.13 164.367C269.118 166.343 271.521 167.144 273.497 166.156C275.472 165.168 276.273 162.766 275.285 160.79L272.567 155.353C270.687 151.593 273.157 147.116 277.34 146.7L321.003 142.354C322.132 142.242 322.993 141.292 322.993 140.156C322.993 139.021 322.132 138.071 321.003 137.958L277.34 133.613C273.156 133.197 270.687 128.719 272.567 124.959L275.285 119.523C276.273 117.547 275.472 115.144 273.497 114.156C271.521 113.168 269.118 113.969 268.13 115.945L261.02 130.165C260.41 131.385 259.162 132.156 257.798 132.156C255.12 132.156 253.378 129.338 254.576 126.943L266.285 103.523C267.273 101.547 266.472 99.1442 264.497 98.1562C262.521 97.1683 260.118 97.9692 259.13 99.9451L244.02 130.165C243.41 131.385 242.162 132.156 240.798 132.156C238.12 132.156 236.378 129.338 237.576 126.943L245.285 111.523C246.273 109.547 245.472 107.144 243.497 106.156C241.521 105.168 239.118 105.969 238.13 107.945L227.683 128.84C226.666 130.872 224.589 132.156 222.316 132.156V132.156C221.251 132.156 220.499 131.114 220.835 130.103L227.942 108.698C229.452 104.152 226.655 99.3074 221.963 98.3416L199.872 93.7945C198.829 93.5798 198.302 92.407 198.835 91.4849V91.4849C199.971 89.5167 202.122 88.3595 204.39 88.4957L227.709 89.8953C229.914 90.0277 231.809 88.3473 231.941 86.1422C232.074 83.937 230.393 82.0421 228.188 81.9097L210.98 80.8768C208.306 80.7163 206.736 77.7986 208.075 75.4793C208.758 74.2976 210.049 73.6027 211.411 73.6845L245.137 75.7088C247.342 75.8412 249.237 74.1608 249.37 71.9556C249.502 69.7505 247.822 67.8555 245.616 67.7232L219.48 66.1544C216.806 65.9939 215.236 63.0762 216.575 60.7569C217.258 59.5751 218.549 58.8803 219.911 58.962L235.781 59.9146C237.986 60.0469 239.881 58.3666 240.013 56.1614C240.146 53.9562 238.465 52.0613 236.26 51.9289L230.193 51.5648C225.997 51.3129 223.354 46.9356 225.085 43.1049L243.153 3.11877C243.621 2.08425 243.228 0.863823 242.245 0.296205C241.262 -0.271414 240.008 -0.0013888 239.346 0.920713L213.751 36.5617C211.299 39.9762 206.187 39.8759 203.871 36.3678L200.522 31.2955C199.305 29.452 196.823 28.9442 194.98 30.1614C193.136 31.3786 192.629 33.8599 193.846 35.7034L202.605 48.9706C203.357 50.1093 203.401 51.5752 202.719 52.7569C201.38 55.0763 198.068 55.1756 196.593 52.9406L182.165 31.0897C180.948 29.2462 178.467 28.7384 176.623 29.9556C174.78 31.1729 174.272 33.6541 175.489 35.4977L194.105 63.693C194.857 64.8318 194.901 66.2976 194.219 67.4794C192.88 69.7987 189.568 69.898 188.093 67.6631L178.594 53.2763C177.376 51.4327 174.895 50.925 173.052 52.1422C171.208 53.3594 170.7 55.8406 171.918 57.6842L184.789 77.179C186.041 79.0755 186.114 81.5168 184.978 83.4849V83.4849C184.446 84.4071 183.167 84.5373 182.459 83.7415L167.476 66.8838C164.294 63.3033 158.699 63.3033 155.517 66.8838L140.534 83.7414C139.826 84.5372 138.547 84.407 138.015 83.4848V83.4848C136.879 81.5167 136.952 79.0754 138.204 77.1789L151.075 57.6842C152.293 55.8406 151.785 53.3594 149.941 52.1422C148.098 50.9249 145.617 51.4327 144.399 53.2762L134.901 67.6629C133.425 69.8979 130.113 69.7986 128.774 67.4792ZM188.602 171.104C189.033 171.85 189.893 172.237 190.737 172.063L207.717 168.568C208.89 168.326 209.589 167.115 209.212 165.979L203.749 149.526C203.477 148.708 202.712 148.156 201.851 148.156H198.434C197.226 148.156 196.293 149.22 196.452 150.418L196.663 152.02C197.375 157.408 194.376 162.602 189.354 164.679L187.861 165.297C186.744 165.759 186.289 167.099 186.894 168.145L188.602 171.104ZM173.037 176.145C172.433 175.099 171.046 174.823 170.087 175.559L168.805 176.543C164.495 179.854 158.498 179.854 154.188 176.543L152.906 175.559C151.947 174.823 150.56 175.099 149.956 176.145L148.248 179.104C147.817 179.85 147.912 180.789 148.485 181.433L160.002 194.39C160.797 195.285 162.196 195.285 162.991 194.39L174.508 181.433C175.081 180.789 175.176 179.85 174.745 179.104L173.037 176.145ZM132.256 172.063C133.1 172.237 133.96 171.85 134.391 171.104L136.099 168.145C136.704 167.099 136.249 165.759 135.132 165.297L133.639 164.679C128.617 162.602 125.618 157.408 126.33 152.02L126.541 150.418C126.7 149.22 125.767 148.156 124.559 148.156H121.142C120.281 148.156 119.516 148.708 119.244 149.526L113.781 165.979C113.404 167.115 114.103 168.326 115.276 168.568L132.256 172.063ZM124.559 132.156C125.767 132.156 126.7 131.093 126.541 129.894L126.33 128.292C125.618 122.904 128.617 117.711 133.639 115.633L135.132 115.015C136.249 114.553 136.704 113.214 136.099 112.167L134.391 109.209C133.96 108.462 133.1 108.076 132.256 108.25L115.276 111.745C114.103 111.986 113.404 113.197 113.781 114.334L119.244 130.786C119.516 131.604 120.281 132.156 121.142 132.156H124.559ZM154.188 103.769L152.906 104.753C151.947 105.489 150.56 105.214 149.956 104.167L148.248 101.209C147.817 100.462 147.912 99.5239 148.485 98.8799L160.002 85.9224C160.797 85.0273 162.196 85.0273 162.991 85.9224L174.508 98.8799C175.081 99.524 175.176 100.462 174.745 101.209L173.037 104.167C172.433 105.214 171.046 105.489 170.087 104.753L168.805 103.769C164.495 100.459 158.498 100.459 154.188 103.769ZM157.944 50.0507C157.662 49.4876 157.662 48.8249 157.944 48.2618L159.708 44.734C160.445 43.2599 162.548 43.2599 163.285 44.734L165.049 48.2618C165.331 48.8249 165.331 49.4876 165.049 50.0507L163.285 53.5785C162.548 55.0526 160.445 55.0526 159.708 53.5785L157.944 50.0507ZM186.894 112.167C186.289 113.214 186.744 114.553 187.861 115.015L189.354 115.633C194.376 117.711 197.375 122.904 196.663 128.292L196.452 129.894C196.293 131.093 197.226 132.156 198.434 132.156H201.851C202.712 132.156 203.477 131.604 203.749 130.787L209.212 114.334C209.589 113.197 208.89 111.986 207.717 111.745L190.737 108.25C189.893 108.076 189.033 108.462 188.602 109.209L186.894 112.167ZM239.303 91.1322C238.675 91.17 238.101 91.5013 237.754 92.0267L235.581 95.3182C234.673 96.6936 235.724 98.5153 237.369 98.4166L241.307 98.1803C241.935 98.1426 242.509 97.8112 242.856 97.2858L245.029 93.9943C245.937 92.619 244.885 90.7972 243.24 90.8959L239.303 91.1322ZM85.2392 188.286C84.8923 188.811 84.3184 189.143 83.69 189.18L79.7528 189.417C78.1077 189.515 77.0559 187.694 77.9639 186.318L80.1372 183.027C80.484 182.501 81.058 182.17 81.6864 182.132L85.6236 181.896C87.2687 181.797 88.3205 183.619 87.4124 184.994L85.2392 188.286ZM165.049 232.051C165.331 231.488 165.331 230.825 165.049 230.262L163.285 226.734C162.548 225.26 160.445 225.26 159.708 226.734L157.944 230.262C157.662 230.825 157.662 231.488 157.944 232.051L159.708 235.579C160.445 237.053 162.548 237.053 163.285 235.579L165.049 232.051ZM241.307 182.132C241.935 182.17 242.509 182.501 242.856 183.027L245.029 186.318C245.937 187.694 244.885 189.515 243.24 189.417L239.303 189.18C238.675 189.143 238.101 188.811 237.754 188.286L235.581 184.994C234.673 183.619 235.724 181.797 237.369 181.896L241.307 182.132Z" fill="#85D9F3"/>
</svg>
