<svg width="63" height="63" viewBox="0 0 63 63" fill="none" xmlns="http://www.w3.org/2000/svg">
<path fill-rule="evenodd" clip-rule="evenodd" d="M56.6202 50.5058C60.5585 45.3006 62.7775 39.0075 62.9841 32.4999C63.0016 31.9479 62.5523 31.4999 62 31.4999H53.5C52.9477 31.4999 52.5025 31.9484 52.4766 32.5001C51.9546 43.6337 42.7627 52.5 31.5 52.5C19.902 52.5 10.5 43.098 10.5 31.5C10.5 19.902 19.902 10.5 31.5 10.5C34.5629 10.5 37.4727 11.1557 40.0965 12.3345C40.6006 12.5609 41.202 12.3665 41.4519 11.8737L45.2936 4.29729C45.5434 3.80471 45.3471 3.20133 44.8468 2.96731C38.9494 0.208536 32.3331 -0.658391 25.9095 0.500044C19.1574 1.71772 12.9875 5.10663 8.33758 10.1516C3.68771 15.1966 0.812137 21.6219 0.147973 28.4507C-0.516192 35.2795 1.06737 42.1384 4.65795 47.9849C8.24853 53.8313 13.6498 58.3456 20.0407 60.8416C26.4316 63.3376 33.4627 63.6787 40.0652 61.8131C46.6677 59.9475 52.4806 55.9773 56.6202 50.5058Z" fill="#7D7D7D"/>
</svg>
