<svg width="37" height="36" viewBox="0 0 37 36" fill="none" xmlns="http://www.w3.org/2000/svg">
<path d="M29.0227 35.7941H8.26829V27.6536H13.5478V21.1845L4.85674 8.14782H0.727493L0.697998 0.557861H16.0352V8.14782H14.2655L18.7094 15.0102L23.1533 8.14782H21.2558V0.557861H36.5832V8.14782H32.4441L23.7432 21.1845V27.6536H29.0227V35.7941ZM11.5717 32.4907H25.7291V30.957H20.4496V20.1915L30.6744 4.85425H33.2798V3.86126H24.5493V4.85425H29.2193L18.6996 21.0861L8.17981 4.84442H12.722V3.85143H4.0014V4.84442H6.61659L16.8414 20.1816V30.957H11.5619V32.4907H11.5717Z" fill="#00356B"/>
<path d="M28.1374 34.9095H9.14287V28.5289H14.4224V20.9192L5.32823 7.26322H1.59224L1.56274 1.43311H15.1303V7.26322H12.6331L18.6991 16.6229L24.7652 7.26322H22.1303V1.44294H35.6979V7.26322H31.9717L22.8579 20.9192V28.5289H28.1374V34.9095ZM10.6864 33.3758H26.6037V30.0724H21.3242V20.4572L31.1459 5.72949H34.1642V2.97666H23.6641V5.72949H27.5869L18.6893 19.4642L9.79175 5.72949H13.5867V2.97666H3.11613L3.12596 5.72949H6.14425L15.966 20.4572V30.0724H10.6864V33.3758Z" fill="white"/>
<path d="M2.34985 2.20947H14.3738V6.49603H11.2179L18.6997 18.0481L26.1815 6.49603H22.8978V2.20947H34.9218V6.49603H31.5496L22.0916 20.683V29.3052H27.3712V34.1424H9.92015V29.3052H15.1997V20.683L5.74174 6.49603H2.35968L2.34985 2.20947Z" fill="#00356B"/>
</svg>
